<svg width="318" height="76" viewBox="0 0 318 76" fill="none" xmlns="http://www.w3.org/2000/svg">
<rect width="76" height="76" rx="16" fill="#6FCF97"/>
<g clip-path="url(#clip0_829_812)">
<path d="M48.667 27.3333H27.3337C25.867 27.3333 24.6803 28.5333 24.6803 29.9999L24.667 45.9999C24.667 47.4666 25.867 48.6666 27.3337 48.6666H48.667C50.1337 48.6666 51.3337 47.4666 51.3337 45.9999V29.9999C51.3337 28.5333 50.1337 27.3333 48.667 27.3333ZM42.0003 45.9999H27.3337V40.6666H42.0003V45.9999ZM42.0003 39.3333H27.3337V33.9999H42.0003V39.3333ZM48.667 45.9999H43.3337V33.9999H48.667V45.9999Z" fill="white"/>
</g>
<path d="M124.394 10.85H118.29V28H114.524V10.85H108.42V7.756H124.394V10.85ZM129.944 13.636V28H126.472V13.636H129.944ZM130.42 9.45C130.42 9.74867 130.36 10.0287 130.238 10.29C130.117 10.5513 129.954 10.78 129.748 10.976C129.552 11.172 129.319 11.3307 129.048 11.452C128.778 11.564 128.488 11.62 128.18 11.62C127.882 11.62 127.597 11.564 127.326 11.452C127.065 11.3307 126.836 11.172 126.64 10.976C126.444 10.78 126.286 10.5513 126.164 10.29C126.052 10.0287 125.996 9.74867 125.996 9.45C125.996 9.142 126.052 8.85267 126.164 8.582C126.286 8.31133 126.444 8.078 126.64 7.882C126.836 7.686 127.065 7.532 127.326 7.42C127.597 7.29867 127.882 7.238 128.18 7.238C128.488 7.238 128.778 7.29867 129.048 7.42C129.319 7.532 129.552 7.686 129.748 7.882C129.954 8.078 130.117 8.31133 130.238 8.582C130.36 8.85267 130.42 9.142 130.42 9.45ZM138.258 28.224C137.007 28.224 136.046 27.874 135.374 27.174C134.711 26.4647 134.38 25.4893 134.38 24.248V16.226H132.91C132.723 16.226 132.564 16.1653 132.434 16.044C132.303 15.9227 132.238 15.7407 132.238 15.498V14.126L134.548 13.748L135.276 9.828C135.322 9.64133 135.411 9.49667 135.542 9.394C135.672 9.29133 135.84 9.24 136.046 9.24H137.838V13.762H141.674V16.226H137.838V24.01C137.838 24.458 137.945 24.808 138.16 25.06C138.384 25.312 138.687 25.438 139.07 25.438C139.284 25.438 139.462 25.4147 139.602 25.368C139.751 25.312 139.877 25.256 139.98 25.2C140.092 25.144 140.19 25.0927 140.274 25.046C140.358 24.99 140.442 24.962 140.526 24.962C140.628 24.962 140.712 24.99 140.778 25.046C140.843 25.0927 140.913 25.1673 140.988 25.27L142.024 26.95C141.52 27.37 140.941 27.6873 140.288 27.902C139.634 28.1167 138.958 28.224 138.258 28.224ZM147.388 7.196V28H143.93V7.196H147.388ZM160.087 19.166C160.087 18.718 160.022 18.298 159.891 17.906C159.77 17.5047 159.583 17.1547 159.331 16.856C159.079 16.5573 158.757 16.324 158.365 16.156C157.982 15.9787 157.534 15.89 157.021 15.89C156.022 15.89 155.234 16.1747 154.655 16.744C154.086 17.3133 153.722 18.1207 153.563 19.166H160.087ZM153.493 21.252C153.549 21.9893 153.68 22.6287 153.885 23.17C154.09 23.702 154.361 24.1453 154.697 24.5C155.033 24.8453 155.43 25.1067 155.887 25.284C156.354 25.452 156.867 25.536 157.427 25.536C157.987 25.536 158.468 25.4707 158.869 25.34C159.28 25.2093 159.634 25.0647 159.933 24.906C160.241 24.7473 160.507 24.6027 160.731 24.472C160.964 24.3413 161.188 24.276 161.403 24.276C161.692 24.276 161.907 24.3833 162.047 24.598L163.041 25.858C162.658 26.306 162.229 26.684 161.753 26.992C161.277 27.2907 160.778 27.5333 160.255 27.72C159.742 27.8973 159.214 28.0233 158.673 28.098C158.141 28.1727 157.623 28.21 157.119 28.21C156.12 28.21 155.192 28.0467 154.333 27.72C153.474 27.384 152.728 26.894 152.093 26.25C151.458 25.5967 150.959 24.794 150.595 23.842C150.231 22.8807 150.049 21.77 150.049 20.51C150.049 19.53 150.208 18.6107 150.525 17.752C150.842 16.884 151.295 16.1327 151.883 15.498C152.48 14.854 153.204 14.3453 154.053 13.972C154.912 13.5987 155.878 13.412 156.951 13.412C157.856 13.412 158.692 13.5567 159.457 13.846C160.222 14.1353 160.88 14.56 161.431 15.12C161.982 15.6707 162.411 16.352 162.719 17.164C163.036 17.9667 163.195 18.886 163.195 19.922C163.195 20.4447 163.139 20.7993 163.027 20.986C162.915 21.1633 162.7 21.252 162.383 21.252H153.493ZM184.625 24.78C184.998 24.78 185.292 24.8873 185.507 25.102C185.731 25.3073 185.843 25.5827 185.843 25.928V28H171.955V26.852C171.955 26.6187 172.001 26.376 172.095 26.124C172.197 25.8627 172.356 25.6293 172.571 25.424L178.717 19.264C179.23 18.7413 179.687 18.242 180.089 17.766C180.499 17.29 180.84 16.8187 181.111 16.352C181.381 15.8853 181.587 15.414 181.727 14.938C181.876 14.4527 181.951 13.944 181.951 13.412C181.951 12.9267 181.881 12.502 181.741 12.138C181.601 11.7647 181.4 11.452 181.139 11.2C180.887 10.948 180.579 10.7613 180.215 10.64C179.86 10.5093 179.459 10.444 179.011 10.444C178.6 10.444 178.217 10.5047 177.863 10.626C177.517 10.738 177.209 10.9013 176.939 11.116C176.668 11.3213 176.439 11.564 176.253 11.844C176.066 12.124 175.926 12.432 175.833 12.768C175.674 13.1973 175.469 13.482 175.217 13.622C174.965 13.762 174.601 13.7947 174.125 13.72L172.305 13.398C172.445 12.4273 172.715 11.578 173.117 10.85C173.518 10.1127 174.017 9.50133 174.615 9.016C175.221 8.52133 175.912 8.15267 176.687 7.91C177.471 7.658 178.311 7.532 179.207 7.532C180.14 7.532 180.994 7.672 181.769 7.952C182.543 8.22267 183.206 8.61 183.757 9.114C184.307 9.618 184.737 10.2247 185.045 10.934C185.353 11.6433 185.507 12.432 185.507 13.3C185.507 14.0467 185.395 14.7373 185.171 15.372C184.956 16.0067 184.662 16.6133 184.289 17.192C183.925 17.7707 183.495 18.3307 183.001 18.872C182.506 19.4133 181.988 19.964 181.447 20.524L176.883 25.186C177.321 25.0553 177.755 24.9573 178.185 24.892C178.623 24.8173 179.039 24.78 179.431 24.78H184.625Z" fill="#333333"/>
<path d="M115.968 52.696V54H109.464V42.536H111.008V52.696H115.968ZM120.185 45.768C120.777 45.768 121.31 45.8667 121.785 46.064C122.259 46.2613 122.665 46.5413 123.001 46.904C123.337 47.2667 123.593 47.7067 123.769 48.224C123.95 48.736 124.041 49.3093 124.041 49.944C124.041 50.584 123.95 51.16 123.769 51.672C123.593 52.184 123.337 52.6213 123.001 52.984C122.665 53.3467 122.259 53.6267 121.785 53.824C121.31 54.016 120.777 54.112 120.185 54.112C119.587 54.112 119.049 54.016 118.569 53.824C118.094 53.6267 117.689 53.3467 117.353 52.984C117.017 52.6213 116.758 52.184 116.577 51.672C116.401 51.16 116.313 50.584 116.313 49.944C116.313 49.3093 116.401 48.736 116.577 48.224C116.758 47.7067 117.017 47.2667 117.353 46.904C117.689 46.5413 118.094 46.2613 118.569 46.064C119.049 45.8667 119.587 45.768 120.185 45.768ZM120.185 53C120.985 53 121.582 52.7333 121.977 52.2C122.371 51.6613 122.569 50.912 122.569 49.952C122.569 48.9867 122.371 48.2347 121.977 47.696C121.582 47.1573 120.985 46.888 120.185 46.888C119.779 46.888 119.425 46.9573 119.121 47.096C118.822 47.2347 118.571 47.4347 118.369 47.696C118.171 47.9573 118.022 48.28 117.921 48.664C117.825 49.0427 117.777 49.472 117.777 49.952C117.777 50.912 117.974 51.6613 118.369 52.2C118.769 52.7333 119.374 53 120.185 53ZM127.199 47.52C127.455 46.9653 127.769 46.5333 128.143 46.224C128.516 45.9093 128.972 45.752 129.511 45.752C129.681 45.752 129.844 45.7707 129.999 45.808C130.159 45.8453 130.3 45.904 130.423 45.984L130.319 47.048C130.287 47.1813 130.207 47.248 130.079 47.248C130.004 47.248 129.895 47.232 129.751 47.2C129.607 47.168 129.444 47.152 129.263 47.152C129.007 47.152 128.777 47.1893 128.575 47.264C128.377 47.3387 128.199 47.4507 128.039 47.6C127.884 47.744 127.743 47.9253 127.615 48.144C127.492 48.3573 127.38 48.6027 127.279 48.88V54H125.847V45.896H126.663C126.817 45.896 126.924 45.9253 126.983 45.984C127.041 46.0427 127.081 46.144 127.103 46.288L127.199 47.52ZM136.771 49.064C136.771 48.7333 136.723 48.432 136.627 48.16C136.536 47.8827 136.4 47.6453 136.219 47.448C136.043 47.2453 135.827 47.0907 135.571 46.984C135.315 46.872 135.024 46.816 134.699 46.816C134.016 46.816 133.475 47.016 133.075 47.416C132.68 47.8107 132.435 48.36 132.339 49.064H136.771ZM137.923 52.864C137.747 53.0773 137.536 53.264 137.291 53.424C137.045 53.5787 136.781 53.7067 136.499 53.808C136.221 53.9093 135.933 53.984 135.635 54.032C135.336 54.0853 135.04 54.112 134.747 54.112C134.187 54.112 133.669 54.0187 133.195 53.832C132.725 53.64 132.317 53.3627 131.971 53C131.629 52.632 131.363 52.1787 131.171 51.64C130.979 51.1013 130.883 50.4827 130.883 49.784C130.883 49.2187 130.968 48.6907 131.139 48.2C131.315 47.7093 131.565 47.2853 131.891 46.928C132.216 46.5653 132.613 46.2827 133.083 46.08C133.552 45.872 134.08 45.768 134.667 45.768C135.152 45.768 135.6 45.8507 136.011 46.016C136.427 46.176 136.784 46.4107 137.083 46.72C137.387 47.024 137.624 47.4027 137.795 47.856C137.965 48.304 138.051 48.816 138.051 49.392C138.051 49.616 138.027 49.7653 137.979 49.84C137.931 49.9147 137.84 49.952 137.707 49.952H132.291C132.307 50.464 132.376 50.9093 132.499 51.288C132.627 51.6667 132.803 51.984 133.027 52.24C133.251 52.4907 133.517 52.68 133.827 52.808C134.136 52.9307 134.483 52.992 134.867 52.992C135.224 52.992 135.531 52.952 135.787 52.872C136.048 52.7867 136.272 52.696 136.459 52.6C136.645 52.504 136.8 52.416 136.923 52.336C137.051 52.2507 137.16 52.208 137.251 52.208C137.368 52.208 137.459 52.2533 137.523 52.344L137.923 52.864ZM139.8 54V45.896H140.656C140.859 45.896 140.984 45.9947 141.032 46.192L141.136 47.024C141.435 46.656 141.771 46.3547 142.144 46.12C142.517 45.8853 142.949 45.768 143.44 45.768C143.984 45.768 144.424 45.92 144.76 46.224C145.101 46.528 145.347 46.9387 145.496 47.456C145.613 47.1627 145.763 46.9093 145.944 46.696C146.131 46.4827 146.339 46.3067 146.568 46.168C146.797 46.0293 147.04 45.928 147.296 45.864C147.557 45.8 147.821 45.768 148.088 45.768C148.515 45.768 148.893 45.8373 149.224 45.976C149.56 46.1093 149.843 46.3067 150.072 46.568C150.307 46.8293 150.485 47.152 150.608 47.536C150.731 47.9147 150.792 48.3493 150.792 48.84V54H149.36V48.84C149.36 48.2053 149.221 47.7253 148.944 47.4C148.667 47.0693 148.267 46.904 147.744 46.904C147.509 46.904 147.285 46.9467 147.072 47.032C146.864 47.112 146.68 47.232 146.52 47.392C146.36 47.552 146.232 47.7547 146.136 48C146.045 48.24 146 48.52 146 48.84V54H144.568V48.84C144.568 48.1893 144.437 47.704 144.176 47.384C143.915 47.064 143.533 46.904 143.032 46.904C142.68 46.904 142.355 47 142.056 47.192C141.757 47.3787 141.483 47.6347 141.232 47.96V54H139.8ZM158.554 45.896V54H157.13V45.896H158.554ZM158.858 43.352C158.858 43.4907 158.829 43.6213 158.77 43.744C158.717 43.8613 158.642 43.968 158.546 44.064C158.455 44.1547 158.346 44.2267 158.218 44.28C158.095 44.3333 157.965 44.36 157.826 44.36C157.687 44.36 157.557 44.3333 157.434 44.28C157.317 44.2267 157.213 44.1547 157.122 44.064C157.031 43.968 156.959 43.8613 156.906 43.744C156.853 43.6213 156.826 43.4907 156.826 43.352C156.826 43.2133 156.853 43.0827 156.906 42.96C156.959 42.832 157.031 42.7227 157.122 42.632C157.213 42.536 157.317 42.4613 157.434 42.408C157.557 42.3547 157.687 42.328 157.826 42.328C157.965 42.328 158.095 42.3547 158.218 42.408C158.346 42.4613 158.455 42.536 158.546 42.632C158.642 42.7227 158.717 42.832 158.77 42.96C158.829 43.0827 158.858 43.2133 158.858 43.352ZM162.326 52.048C162.587 52.4 162.872 52.648 163.182 52.792C163.491 52.936 163.838 53.008 164.222 53.008C164.979 53.008 165.56 52.7387 165.966 52.2C166.371 51.6613 166.574 50.8933 166.574 49.896C166.574 49.368 166.526 48.9147 166.43 48.536C166.339 48.1573 166.206 47.848 166.03 47.608C165.854 47.3627 165.638 47.184 165.382 47.072C165.126 46.96 164.835 46.904 164.51 46.904C164.046 46.904 163.638 47.0107 163.286 47.224C162.939 47.4373 162.619 47.7387 162.326 48.128V52.048ZM162.254 47.152C162.595 46.7307 162.99 46.392 163.438 46.136C163.886 45.88 164.398 45.752 164.974 45.752C165.443 45.752 165.867 45.8427 166.246 46.024C166.624 46.2 166.947 46.464 167.214 46.816C167.48 47.1627 167.686 47.5947 167.83 48.112C167.974 48.6293 168.046 49.224 168.046 49.896C168.046 50.4933 167.966 51.0507 167.806 51.568C167.646 52.08 167.414 52.5253 167.11 52.904C166.811 53.2773 166.443 53.5733 166.006 53.792C165.574 54.0053 165.086 54.112 164.542 54.112C164.046 54.112 163.619 54.0293 163.262 53.864C162.91 53.6933 162.598 53.4587 162.326 53.16V56.744H160.894V45.896H161.75C161.952 45.896 162.078 45.9947 162.126 46.192L162.254 47.152ZM174.582 47.232C174.518 47.3493 174.42 47.408 174.286 47.408C174.206 47.408 174.116 47.3787 174.014 47.32C173.913 47.2613 173.788 47.1973 173.638 47.128C173.494 47.0533 173.321 46.9867 173.118 46.928C172.916 46.864 172.676 46.832 172.398 46.832C172.158 46.832 171.942 46.864 171.75 46.928C171.558 46.9867 171.393 47.0693 171.254 47.176C171.121 47.2827 171.017 47.408 170.942 47.552C170.873 47.6907 170.838 47.8427 170.838 48.008C170.838 48.216 170.897 48.3893 171.014 48.528C171.137 48.6667 171.297 48.7867 171.494 48.888C171.692 48.9893 171.916 49.08 172.166 49.16C172.417 49.2347 172.673 49.3173 172.934 49.408C173.201 49.4933 173.46 49.5893 173.71 49.696C173.961 49.8027 174.185 49.936 174.382 50.096C174.58 50.256 174.737 50.4533 174.854 50.688C174.977 50.9173 175.038 51.1947 175.038 51.52C175.038 51.8933 174.972 52.24 174.838 52.56C174.705 52.8747 174.508 53.1493 174.246 53.384C173.985 53.6133 173.665 53.7947 173.286 53.928C172.908 54.0613 172.47 54.128 171.974 54.128C171.409 54.128 170.897 54.0373 170.438 53.856C169.98 53.6693 169.59 53.432 169.27 53.144L169.606 52.6C169.649 52.5307 169.7 52.4773 169.758 52.44C169.817 52.4027 169.892 52.384 169.982 52.384C170.078 52.384 170.18 52.4213 170.286 52.496C170.393 52.5707 170.521 52.6533 170.67 52.744C170.825 52.8347 171.012 52.9173 171.23 52.992C171.449 53.0667 171.721 53.104 172.046 53.104C172.324 53.104 172.566 53.0693 172.774 53C172.982 52.9253 173.156 52.8267 173.294 52.704C173.433 52.5813 173.534 52.44 173.598 52.28C173.668 52.12 173.702 51.9493 173.702 51.768C173.702 51.544 173.641 51.36 173.518 51.216C173.401 51.0667 173.244 50.9413 173.046 50.84C172.849 50.7333 172.622 50.6427 172.366 50.568C172.116 50.488 171.857 50.4053 171.59 50.32C171.329 50.2347 171.07 50.1387 170.814 50.032C170.564 49.92 170.34 49.7813 170.142 49.616C169.945 49.4507 169.785 49.248 169.662 49.008C169.545 48.7627 169.486 48.4667 169.486 48.12C169.486 47.8107 169.55 47.5147 169.678 47.232C169.806 46.944 169.993 46.6933 170.238 46.48C170.484 46.2613 170.785 46.088 171.142 45.96C171.5 45.832 171.908 45.768 172.366 45.768C172.9 45.768 173.377 45.8533 173.798 46.024C174.225 46.1893 174.593 46.4187 174.902 46.712L174.582 47.232ZM183.448 45.896V54H182.6C182.398 54 182.27 53.9013 182.216 53.704L182.104 52.832C181.752 53.2213 181.358 53.536 180.92 53.776C180.483 54.0107 179.982 54.128 179.416 54.128C178.974 54.128 178.582 54.056 178.24 53.912C177.904 53.7627 177.622 53.5547 177.392 53.288C177.163 53.0213 176.99 52.6987 176.872 52.32C176.76 51.9413 176.704 51.5227 176.704 51.064V45.896H178.128V51.064C178.128 51.6773 178.267 52.152 178.544 52.488C178.827 52.824 179.256 52.992 179.832 52.992C180.254 52.992 180.646 52.8933 181.008 52.696C181.376 52.4933 181.715 52.216 182.024 51.864V45.896H183.448ZM185.706 54V45.896H186.562C186.765 45.896 186.89 45.9947 186.938 46.192L187.042 47.024C187.341 46.656 187.677 46.3547 188.05 46.12C188.423 45.8853 188.855 45.768 189.346 45.768C189.89 45.768 190.33 45.92 190.666 46.224C191.007 46.528 191.253 46.9387 191.402 47.456C191.519 47.1627 191.669 46.9093 191.85 46.696C192.037 46.4827 192.245 46.3067 192.474 46.168C192.703 46.0293 192.946 45.928 193.202 45.864C193.463 45.8 193.727 45.768 193.994 45.768C194.421 45.768 194.799 45.8373 195.13 45.976C195.466 46.1093 195.749 46.3067 195.978 46.568C196.213 46.8293 196.391 47.152 196.514 47.536C196.637 47.9147 196.698 48.3493 196.698 48.84V54H195.266V48.84C195.266 48.2053 195.127 47.7253 194.85 47.4C194.573 47.0693 194.173 46.904 193.65 46.904C193.415 46.904 193.191 46.9467 192.978 47.032C192.77 47.112 192.586 47.232 192.426 47.392C192.266 47.552 192.138 47.7547 192.042 48C191.951 48.24 191.906 48.52 191.906 48.84V54H190.474V48.84C190.474 48.1893 190.343 47.704 190.082 47.384C189.821 47.064 189.439 46.904 188.938 46.904C188.586 46.904 188.261 47 187.962 47.192C187.663 47.3787 187.389 47.6347 187.138 47.96V54H185.706ZM208.236 47.824C207.969 47.4667 207.681 47.2187 207.372 47.08C207.063 46.936 206.716 46.864 206.332 46.864C205.58 46.864 205.001 47.1333 204.596 47.672C204.191 48.2107 203.988 48.9787 203.988 49.976C203.988 50.504 204.033 50.9573 204.124 51.336C204.215 51.7093 204.348 52.0187 204.524 52.264C204.7 52.504 204.916 52.68 205.172 52.792C205.428 52.904 205.719 52.96 206.044 52.96C206.513 52.96 206.921 52.8533 207.268 52.64C207.62 52.4267 207.943 52.1253 208.236 51.736V47.824ZM209.66 42.216V54H208.812C208.609 54 208.481 53.9013 208.428 53.704L208.3 52.72C207.953 53.136 207.559 53.472 207.116 53.728C206.673 53.984 206.161 54.112 205.58 54.112C205.116 54.112 204.695 54.024 204.316 53.848C203.937 53.6667 203.615 53.4027 203.348 53.056C203.081 52.7093 202.876 52.2773 202.732 51.76C202.588 51.2427 202.516 50.648 202.516 49.976C202.516 49.3787 202.596 48.824 202.756 48.312C202.916 47.7947 203.145 47.3467 203.444 46.968C203.743 46.5893 204.108 46.2933 204.54 46.08C204.977 45.8613 205.468 45.752 206.012 45.752C206.508 45.752 206.932 45.8373 207.284 46.008C207.641 46.1733 207.959 46.4053 208.236 46.704V42.216H209.66ZM215.325 45.768C215.917 45.768 216.451 45.8667 216.925 46.064C217.4 46.2613 217.805 46.5413 218.141 46.904C218.477 47.2667 218.733 47.7067 218.909 48.224C219.091 48.736 219.181 49.3093 219.181 49.944C219.181 50.584 219.091 51.16 218.909 51.672C218.733 52.184 218.477 52.6213 218.141 52.984C217.805 53.3467 217.4 53.6267 216.925 53.824C216.451 54.016 215.917 54.112 215.325 54.112C214.728 54.112 214.189 54.016 213.709 53.824C213.235 53.6267 212.829 53.3467 212.493 52.984C212.157 52.6213 211.899 52.184 211.717 51.672C211.541 51.16 211.453 50.584 211.453 49.944C211.453 49.3093 211.541 48.736 211.717 48.224C211.899 47.7067 212.157 47.2667 212.493 46.904C212.829 46.5413 213.235 46.2613 213.709 46.064C214.189 45.8667 214.728 45.768 215.325 45.768ZM215.325 53C216.125 53 216.723 52.7333 217.117 52.2C217.512 51.6613 217.709 50.912 217.709 49.952C217.709 48.9867 217.512 48.2347 217.117 47.696C216.723 47.1573 216.125 46.888 215.325 46.888C214.92 46.888 214.565 46.9573 214.261 47.096C213.963 47.2347 213.712 47.4347 213.509 47.696C213.312 47.9573 213.163 48.28 213.061 48.664C212.965 49.0427 212.917 49.472 212.917 49.952C212.917 50.912 213.115 51.6613 213.509 52.2C213.909 52.7333 214.515 53 215.325 53ZM222.459 42.216V54H221.035V42.216H222.459ZM228.185 45.768C228.777 45.768 229.31 45.8667 229.785 46.064C230.259 46.2613 230.665 46.5413 231.001 46.904C231.337 47.2667 231.593 47.7067 231.769 48.224C231.95 48.736 232.041 49.3093 232.041 49.944C232.041 50.584 231.95 51.16 231.769 51.672C231.593 52.184 231.337 52.6213 231.001 52.984C230.665 53.3467 230.259 53.6267 229.785 53.824C229.31 54.016 228.777 54.112 228.185 54.112C227.587 54.112 227.049 54.016 226.569 53.824C226.094 53.6267 225.689 53.3467 225.353 52.984C225.017 52.6213 224.758 52.184 224.577 51.672C224.401 51.16 224.313 50.584 224.313 49.944C224.313 49.3093 224.401 48.736 224.577 48.224C224.758 47.7067 225.017 47.2667 225.353 46.904C225.689 46.5413 226.094 46.2613 226.569 46.064C227.049 45.8667 227.587 45.768 228.185 45.768ZM228.185 53C228.985 53 229.582 52.7333 229.977 52.2C230.371 51.6613 230.569 50.912 230.569 49.952C230.569 48.9867 230.371 48.2347 229.977 47.696C229.582 47.1573 228.985 46.888 228.185 46.888C227.779 46.888 227.425 46.9573 227.121 47.096C226.822 47.2347 226.571 47.4347 226.369 47.696C226.171 47.9573 226.022 48.28 225.921 48.664C225.825 49.0427 225.777 49.472 225.777 49.952C225.777 50.912 225.974 51.6613 226.369 52.2C226.769 52.7333 227.374 53 228.185 53ZM235.199 47.52C235.455 46.9653 235.769 46.5333 236.143 46.224C236.516 45.9093 236.972 45.752 237.511 45.752C237.681 45.752 237.844 45.7707 237.999 45.808C238.159 45.8453 238.3 45.904 238.423 45.984L238.319 47.048C238.287 47.1813 238.207 47.248 238.079 47.248C238.004 47.248 237.895 47.232 237.751 47.2C237.607 47.168 237.444 47.152 237.263 47.152C237.007 47.152 236.777 47.1893 236.575 47.264C236.377 47.3387 236.199 47.4507 236.039 47.6C235.884 47.744 235.743 47.9253 235.615 48.144C235.492 48.3573 235.38 48.6027 235.279 48.88V54H233.847V45.896H234.663C234.817 45.896 234.924 45.9253 234.983 45.984C235.041 46.0427 235.081 46.144 235.103 46.288L235.199 47.52ZM248.145 47.232C248.081 47.3493 247.982 47.408 247.849 47.408C247.769 47.408 247.678 47.3787 247.577 47.32C247.476 47.2613 247.35 47.1973 247.201 47.128C247.057 47.0533 246.884 46.9867 246.681 46.928C246.478 46.864 246.238 46.832 245.961 46.832C245.721 46.832 245.505 46.864 245.313 46.928C245.121 46.9867 244.956 47.0693 244.817 47.176C244.684 47.2827 244.58 47.408 244.505 47.552C244.436 47.6907 244.401 47.8427 244.401 48.008C244.401 48.216 244.46 48.3893 244.577 48.528C244.7 48.6667 244.86 48.7867 245.057 48.888C245.254 48.9893 245.478 49.08 245.729 49.16C245.98 49.2347 246.236 49.3173 246.497 49.408C246.764 49.4933 247.022 49.5893 247.273 49.696C247.524 49.8027 247.748 49.936 247.945 50.096C248.142 50.256 248.3 50.4533 248.417 50.688C248.54 50.9173 248.601 51.1947 248.601 51.52C248.601 51.8933 248.534 52.24 248.401 52.56C248.268 52.8747 248.07 53.1493 247.809 53.384C247.548 53.6133 247.228 53.7947 246.849 53.928C246.47 54.0613 246.033 54.128 245.537 54.128C244.972 54.128 244.46 54.0373 244.001 53.856C243.542 53.6693 243.153 53.432 242.833 53.144L243.169 52.6C243.212 52.5307 243.262 52.4773 243.321 52.44C243.38 52.4027 243.454 52.384 243.545 52.384C243.641 52.384 243.742 52.4213 243.849 52.496C243.956 52.5707 244.084 52.6533 244.233 52.744C244.388 52.8347 244.574 52.9173 244.793 52.992C245.012 53.0667 245.284 53.104 245.609 53.104C245.886 53.104 246.129 53.0693 246.337 53C246.545 52.9253 246.718 52.8267 246.857 52.704C246.996 52.5813 247.097 52.44 247.161 52.28C247.23 52.12 247.265 51.9493 247.265 51.768C247.265 51.544 247.204 51.36 247.081 51.216C246.964 51.0667 246.806 50.9413 246.609 50.84C246.412 50.7333 246.185 50.6427 245.929 50.568C245.678 50.488 245.42 50.4053 245.153 50.32C244.892 50.2347 244.633 50.1387 244.377 50.032C244.126 49.92 243.902 49.7813 243.705 49.616C243.508 49.4507 243.348 49.248 243.225 49.008C243.108 48.7627 243.049 48.4667 243.049 48.12C243.049 47.8107 243.113 47.5147 243.241 47.232C243.369 46.944 243.556 46.6933 243.801 46.48C244.046 46.2613 244.348 46.088 244.705 45.96C245.062 45.832 245.47 45.768 245.929 45.768C246.462 45.768 246.94 45.8533 247.361 46.024C247.788 46.1893 248.156 46.4187 248.465 46.712L248.145 47.232ZM251.851 45.896V54H250.427V45.896H251.851ZM252.155 43.352C252.155 43.4907 252.125 43.6213 252.067 43.744C252.013 43.8613 251.939 43.968 251.843 44.064C251.752 44.1547 251.643 44.2267 251.515 44.28C251.392 44.3333 251.261 44.36 251.123 44.36C250.984 44.36 250.853 44.3333 250.731 44.28C250.613 44.2267 250.509 44.1547 250.419 44.064C250.328 43.968 250.256 43.8613 250.203 43.744C250.149 43.6213 250.123 43.4907 250.123 43.352C250.123 43.2133 250.149 43.0827 250.203 42.96C250.256 42.832 250.328 42.7227 250.419 42.632C250.509 42.536 250.613 42.4613 250.731 42.408C250.853 42.3547 250.984 42.328 251.123 42.328C251.261 42.328 251.392 42.3547 251.515 42.408C251.643 42.4613 251.752 42.536 251.843 42.632C251.939 42.7227 252.013 42.832 252.067 42.96C252.125 43.0827 252.155 43.2133 252.155 43.352ZM256.679 54.128C256.039 54.128 255.545 53.9493 255.199 53.592C254.857 53.2347 254.687 52.72 254.687 52.048V47.088H253.711C253.625 47.088 253.553 47.064 253.495 47.016C253.436 46.9627 253.407 46.8827 253.407 46.776V46.208L254.735 46.04L255.062 43.536C255.079 43.456 255.113 43.392 255.167 43.344C255.225 43.2907 255.3 43.264 255.391 43.264H256.111V46.056H258.455V47.088H256.111V51.952C256.111 52.2933 256.193 52.5467 256.359 52.712C256.524 52.8773 256.737 52.96 256.999 52.96C257.148 52.96 257.276 52.9413 257.383 52.904C257.495 52.8613 257.591 52.816 257.671 52.768C257.751 52.72 257.817 52.6773 257.871 52.64C257.929 52.5973 257.98 52.576 258.023 52.576C258.097 52.576 258.164 52.6213 258.223 52.712L258.639 53.392C258.393 53.6213 258.097 53.8027 257.751 53.936C257.404 54.064 257.047 54.128 256.679 54.128ZM268.411 50.352C267.755 50.3733 267.195 50.4267 266.731 50.512C266.272 50.592 265.896 50.6987 265.603 50.832C265.315 50.9653 265.104 51.1227 264.971 51.304C264.843 51.4853 264.779 51.688 264.779 51.912C264.779 52.1253 264.813 52.3093 264.883 52.464C264.952 52.6187 265.045 52.7467 265.163 52.848C265.285 52.944 265.427 53.016 265.587 53.064C265.752 53.1067 265.928 53.128 266.115 53.128C266.365 53.128 266.595 53.104 266.803 53.056C267.011 53.0027 267.205 52.928 267.387 52.832C267.573 52.736 267.749 52.6213 267.915 52.488C268.085 52.3547 268.251 52.2027 268.411 52.032V50.352ZM263.811 47.04C264.259 46.608 264.741 46.2853 265.259 46.072C265.776 45.8587 266.349 45.752 266.979 45.752C267.432 45.752 267.835 45.8267 268.187 45.976C268.539 46.1253 268.835 46.3333 269.075 46.6C269.315 46.8667 269.496 47.1893 269.619 47.568C269.741 47.9467 269.803 48.3627 269.803 48.816V54H269.171C269.032 54 268.925 53.9787 268.851 53.936C268.776 53.888 268.717 53.7973 268.675 53.664L268.515 52.896C268.301 53.0933 268.093 53.2693 267.891 53.424C267.688 53.5733 267.475 53.7013 267.251 53.808C267.027 53.9093 266.787 53.9867 266.531 54.04C266.28 54.0987 266 54.128 265.691 54.128C265.376 54.128 265.08 54.0853 264.803 54C264.525 53.9093 264.283 53.776 264.075 53.6C263.872 53.424 263.709 53.2027 263.587 52.936C263.469 52.664 263.411 52.344 263.411 51.976C263.411 51.656 263.499 51.3493 263.675 51.056C263.851 50.7573 264.136 50.4933 264.531 50.264C264.925 50.0347 265.44 49.848 266.075 49.704C266.709 49.5547 267.488 49.4693 268.411 49.448V48.816C268.411 48.1867 268.275 47.712 268.003 47.392C267.731 47.0667 267.333 46.904 266.811 46.904C266.459 46.904 266.163 46.9493 265.923 47.04C265.688 47.1253 265.483 47.224 265.307 47.336C265.136 47.4427 264.987 47.5413 264.859 47.632C264.736 47.7173 264.613 47.76 264.491 47.76C264.395 47.76 264.312 47.736 264.243 47.688C264.173 47.6347 264.115 47.5707 264.067 47.496L263.811 47.04ZM271.972 54V45.896H272.828C273.03 45.896 273.156 45.9947 273.204 46.192L273.308 47.024C273.606 46.656 273.942 46.3547 274.316 46.12C274.689 45.8853 275.121 45.768 275.612 45.768C276.156 45.768 276.596 45.92 276.932 46.224C277.273 46.528 277.518 46.9387 277.668 47.456C277.785 47.1627 277.934 46.9093 278.116 46.696C278.302 46.4827 278.51 46.3067 278.74 46.168C278.969 46.0293 279.212 45.928 279.468 45.864C279.729 45.8 279.993 45.768 280.26 45.768C280.686 45.768 281.065 45.8373 281.396 45.976C281.732 46.1093 282.014 46.3067 282.244 46.568C282.478 46.8293 282.657 47.152 282.78 47.536C282.902 47.9147 282.964 48.3493 282.964 48.84V54H281.532V48.84C281.532 48.2053 281.393 47.7253 281.116 47.4C280.838 47.0693 280.438 46.904 279.916 46.904C279.681 46.904 279.457 46.9467 279.244 47.032C279.036 47.112 278.852 47.232 278.692 47.392C278.532 47.552 278.404 47.7547 278.308 48C278.217 48.24 278.172 48.52 278.172 48.84V54H276.74V48.84C276.74 48.1893 276.609 47.704 276.348 47.384C276.086 47.064 275.705 46.904 275.204 46.904C274.852 46.904 274.526 47 274.228 47.192C273.929 47.3787 273.654 47.6347 273.404 47.96V54H271.972ZM290.552 49.064C290.552 48.7333 290.504 48.432 290.408 48.16C290.317 47.8827 290.181 47.6453 290 47.448C289.824 47.2453 289.608 47.0907 289.352 46.984C289.096 46.872 288.805 46.816 288.48 46.816C287.797 46.816 287.256 47.016 286.856 47.416C286.461 47.8107 286.216 48.36 286.12 49.064H290.552ZM291.704 52.864C291.528 53.0773 291.317 53.264 291.072 53.424C290.827 53.5787 290.563 53.7067 290.28 53.808C290.003 53.9093 289.715 53.984 289.416 54.032C289.117 54.0853 288.821 54.112 288.528 54.112C287.968 54.112 287.451 54.0187 286.976 53.832C286.507 53.64 286.099 53.3627 285.752 53C285.411 52.632 285.144 52.1787 284.952 51.64C284.76 51.1013 284.664 50.4827 284.664 49.784C284.664 49.2187 284.749 48.6907 284.92 48.2C285.096 47.7093 285.347 47.2853 285.672 46.928C285.997 46.5653 286.395 46.2827 286.864 46.08C287.333 45.872 287.861 45.768 288.448 45.768C288.933 45.768 289.381 45.8507 289.792 46.016C290.208 46.176 290.565 46.4107 290.864 46.72C291.168 47.024 291.405 47.4027 291.576 47.856C291.747 48.304 291.832 48.816 291.832 49.392C291.832 49.616 291.808 49.7653 291.76 49.84C291.712 49.9147 291.621 49.952 291.488 49.952H286.072C286.088 50.464 286.157 50.9093 286.28 51.288C286.408 51.6667 286.584 51.984 286.808 52.24C287.032 52.4907 287.299 52.68 287.608 52.808C287.917 52.9307 288.264 52.992 288.648 52.992C289.005 52.992 289.312 52.952 289.568 52.872C289.829 52.7867 290.053 52.696 290.24 52.6C290.427 52.504 290.581 52.416 290.704 52.336C290.832 52.2507 290.941 52.208 291.032 52.208C291.149 52.208 291.24 52.2533 291.304 52.344L291.704 52.864ZM296.007 54.128C295.367 54.128 294.873 53.9493 294.527 53.592C294.185 53.2347 294.015 52.72 294.015 52.048V47.088H293.039C292.953 47.088 292.881 47.064 292.823 47.016C292.764 46.9627 292.735 46.8827 292.735 46.776V46.208L294.063 46.04L294.391 43.536C294.407 43.456 294.441 43.392 294.495 43.344C294.553 43.2907 294.628 43.264 294.719 43.264H295.439V46.056H297.783V47.088H295.439V51.952C295.439 52.2933 295.521 52.5467 295.687 52.712C295.852 52.8773 296.065 52.96 296.327 52.96C296.476 52.96 296.604 52.9413 296.711 52.904C296.823 52.8613 296.919 52.816 296.999 52.768C297.079 52.72 297.145 52.6773 297.199 52.64C297.257 52.5973 297.308 52.576 297.351 52.576C297.425 52.576 297.492 52.6213 297.551 52.712L297.967 53.392C297.721 53.6213 297.425 53.8027 297.079 53.936C296.732 54.064 296.375 54.128 296.007 54.128ZM299.165 55.936C299.122 55.8987 299.093 55.864 299.077 55.832C299.061 55.8 299.053 55.76 299.053 55.712C299.053 55.6747 299.064 55.6373 299.085 55.6C299.112 55.5627 299.141 55.528 299.173 55.496C299.226 55.4373 299.293 55.36 299.373 55.264C299.458 55.168 299.544 55.0533 299.629 54.92C299.714 54.792 299.792 54.648 299.861 54.488C299.936 54.3333 299.989 54.168 300.021 53.992C300.005 53.9973 299.986 54 299.965 54C299.949 54 299.933 54 299.917 54C299.64 54 299.413 53.9093 299.237 53.728C299.066 53.5413 298.981 53.304 298.981 53.016C298.981 52.7653 299.066 52.552 299.237 52.376C299.413 52.2 299.645 52.112 299.933 52.112C300.093 52.112 300.234 52.1413 300.357 52.2C300.48 52.2587 300.581 52.3413 300.661 52.448C300.746 52.5493 300.81 52.6693 300.853 52.808C300.896 52.9413 300.917 53.088 300.917 53.248C300.917 53.488 300.882 53.7387 300.813 54C300.749 54.256 300.65 54.5093 300.517 54.76C300.389 55.016 300.232 55.264 300.045 55.504C299.858 55.744 299.645 55.9653 299.405 56.168L299.165 55.936ZM114.768 66.336C114.725 66.3947 114.683 66.44 114.64 66.472C114.597 66.504 114.539 66.52 114.464 66.52C114.384 66.52 114.296 66.488 114.2 66.424C114.104 66.3547 113.984 66.28 113.84 66.2C113.701 66.12 113.528 66.048 113.32 65.984C113.117 65.9147 112.867 65.88 112.568 65.88C112.168 65.88 111.816 65.952 111.512 66.096C111.208 66.2347 110.952 66.4373 110.744 66.704C110.541 66.9707 110.387 67.2933 110.28 67.672C110.179 68.0507 110.128 68.4747 110.128 68.944C110.128 69.4347 110.184 69.872 110.296 70.256C110.408 70.6347 110.565 70.9547 110.768 71.216C110.976 71.472 111.224 71.6693 111.512 71.808C111.805 71.9413 112.133 72.008 112.496 72.008C112.843 72.008 113.128 71.968 113.352 71.888C113.576 71.8027 113.76 71.7093 113.904 71.608C114.053 71.5067 114.176 71.416 114.272 71.336C114.373 71.2507 114.472 71.208 114.568 71.208C114.685 71.208 114.776 71.2533 114.84 71.344L115.24 71.864C115.064 72.0827 114.864 72.2693 114.64 72.424C114.416 72.5787 114.173 72.7093 113.912 72.816C113.656 72.9173 113.387 72.992 113.104 73.04C112.821 73.088 112.533 73.112 112.24 73.112C111.733 73.112 111.261 73.0187 110.824 72.832C110.392 72.6453 110.016 72.376 109.696 72.024C109.376 71.6667 109.125 71.2293 108.944 70.712C108.763 70.1947 108.672 69.6053 108.672 68.944C108.672 68.3413 108.755 67.784 108.92 67.272C109.091 66.76 109.336 66.32 109.656 65.952C109.981 65.5787 110.379 65.288 110.848 65.08C111.323 64.872 111.867 64.768 112.48 64.768C113.051 64.768 113.552 64.8613 113.984 65.048C114.421 65.2293 114.808 65.488 115.144 65.824L114.768 66.336ZM120.044 64.768C120.636 64.768 121.169 64.8667 121.644 65.064C122.119 65.2613 122.524 65.5413 122.86 65.904C123.196 66.2667 123.452 66.7067 123.628 67.224C123.809 67.736 123.9 68.3093 123.9 68.944C123.9 69.584 123.809 70.16 123.628 70.672C123.452 71.184 123.196 71.6213 122.86 71.984C122.524 72.3467 122.119 72.6267 121.644 72.824C121.169 73.016 120.636 73.112 120.044 73.112C119.447 73.112 118.908 73.016 118.428 72.824C117.953 72.6267 117.548 72.3467 117.212 71.984C116.876 71.6213 116.617 71.184 116.436 70.672C116.26 70.16 116.172 69.584 116.172 68.944C116.172 68.3093 116.26 67.736 116.436 67.224C116.617 66.7067 116.876 66.2667 117.212 65.904C117.548 65.5413 117.953 65.2613 118.428 65.064C118.908 64.8667 119.447 64.768 120.044 64.768ZM120.044 72C120.844 72 121.441 71.7333 121.836 71.2C122.231 70.6613 122.428 69.912 122.428 68.952C122.428 67.9867 122.231 67.2347 121.836 66.696C121.441 66.1573 120.844 65.888 120.044 65.888C119.639 65.888 119.284 65.9573 118.98 66.096C118.681 66.2347 118.431 66.4347 118.228 66.696C118.031 66.9573 117.881 67.28 117.78 67.664C117.684 68.0427 117.636 68.472 117.636 68.952C117.636 69.912 117.833 70.6613 118.228 71.2C118.628 71.7333 119.233 72 120.044 72ZM127.05 66.072C127.226 65.8747 127.413 65.696 127.61 65.536C127.807 65.376 128.015 65.24 128.234 65.128C128.458 65.0107 128.693 64.9227 128.938 64.864C129.189 64.8 129.458 64.768 129.746 64.768C130.189 64.768 130.578 64.8427 130.914 64.992C131.255 65.136 131.538 65.344 131.762 65.616C131.991 65.8827 132.165 66.2053 132.282 66.584C132.399 66.9627 132.458 67.3813 132.458 67.84V73H131.026V67.84C131.026 67.2267 130.885 66.752 130.602 66.416C130.325 66.0747 129.901 65.904 129.33 65.904C128.909 65.904 128.514 66.0053 128.146 66.208C127.783 66.4107 127.447 66.6853 127.138 67.032V73H125.706V64.896H126.562C126.765 64.896 126.89 64.9947 126.938 65.192L127.05 66.072ZM139.348 66.232C139.284 66.3493 139.185 66.408 139.052 66.408C138.972 66.408 138.881 66.3787 138.78 66.32C138.679 66.2613 138.553 66.1973 138.404 66.128C138.26 66.0533 138.087 65.9867 137.884 65.928C137.681 65.864 137.441 65.832 137.164 65.832C136.924 65.832 136.708 65.864 136.516 65.928C136.324 65.9867 136.159 66.0693 136.02 66.176C135.887 66.2827 135.783 66.408 135.708 66.552C135.639 66.6907 135.604 66.8427 135.604 67.008C135.604 67.216 135.663 67.3893 135.78 67.528C135.903 67.6667 136.063 67.7867 136.26 67.888C136.457 67.9893 136.681 68.08 136.932 68.16C137.183 68.2347 137.439 68.3173 137.7 68.408C137.967 68.4933 138.225 68.5893 138.476 68.696C138.727 68.8027 138.951 68.936 139.148 69.096C139.345 69.256 139.503 69.4533 139.62 69.688C139.743 69.9173 139.804 70.1947 139.804 70.52C139.804 70.8933 139.737 71.24 139.604 71.56C139.471 71.8747 139.273 72.1493 139.012 72.384C138.751 72.6133 138.431 72.7947 138.052 72.928C137.673 73.0613 137.236 73.128 136.74 73.128C136.175 73.128 135.663 73.0373 135.204 72.856C134.745 72.6693 134.356 72.432 134.036 72.144L134.372 71.6C134.415 71.5307 134.465 71.4773 134.524 71.44C134.583 71.4027 134.657 71.384 134.748 71.384C134.844 71.384 134.945 71.4213 135.052 71.496C135.159 71.5707 135.287 71.6533 135.436 71.744C135.591 71.8347 135.777 71.9173 135.996 71.992C136.215 72.0667 136.487 72.104 136.812 72.104C137.089 72.104 137.332 72.0693 137.54 72C137.748 71.9253 137.921 71.8267 138.06 71.704C138.199 71.5813 138.3 71.44 138.364 71.28C138.433 71.12 138.468 70.9493 138.468 70.768C138.468 70.544 138.407 70.36 138.284 70.216C138.167 70.0667 138.009 69.9413 137.812 69.84C137.615 69.7333 137.388 69.6427 137.132 69.568C136.881 69.488 136.623 69.4053 136.356 69.32C136.095 69.2347 135.836 69.1387 135.58 69.032C135.329 68.92 135.105 68.7813 134.908 68.616C134.711 68.4507 134.551 68.248 134.428 68.008C134.311 67.7627 134.252 67.4667 134.252 67.12C134.252 66.8107 134.316 66.5147 134.444 66.232C134.572 65.944 134.759 65.6933 135.004 65.48C135.249 65.2613 135.551 65.088 135.908 64.96C136.265 64.832 136.673 64.768 137.132 64.768C137.665 64.768 138.143 64.8533 138.564 65.024C138.991 65.1893 139.359 65.4187 139.668 65.712L139.348 66.232ZM146.974 68.064C146.974 67.7333 146.926 67.432 146.83 67.16C146.739 66.8827 146.603 66.6453 146.422 66.448C146.246 66.2453 146.03 66.0907 145.774 65.984C145.518 65.872 145.227 65.816 144.902 65.816C144.219 65.816 143.678 66.016 143.278 66.416C142.883 66.8107 142.638 67.36 142.542 68.064H146.974ZM148.126 71.864C147.95 72.0773 147.739 72.264 147.494 72.424C147.249 72.5787 146.985 72.7067 146.702 72.808C146.425 72.9093 146.137 72.984 145.838 73.032C145.539 73.0853 145.243 73.112 144.95 73.112C144.39 73.112 143.873 73.0187 143.398 72.832C142.929 72.64 142.521 72.3627 142.174 72C141.833 71.632 141.566 71.1787 141.374 70.64C141.182 70.1013 141.086 69.4827 141.086 68.784C141.086 68.2187 141.171 67.6907 141.342 67.2C141.518 66.7093 141.769 66.2853 142.094 65.928C142.419 65.5653 142.817 65.2827 143.286 65.08C143.755 64.872 144.283 64.768 144.87 64.768C145.355 64.768 145.803 64.8507 146.214 65.016C146.63 65.176 146.987 65.4107 147.286 65.72C147.59 66.024 147.827 66.4027 147.998 66.856C148.169 67.304 148.254 67.816 148.254 68.392C148.254 68.616 148.23 68.7653 148.182 68.84C148.134 68.9147 148.043 68.952 147.91 68.952H142.494C142.51 69.464 142.579 69.9093 142.702 70.288C142.83 70.6667 143.006 70.984 143.23 71.24C143.454 71.4907 143.721 71.68 144.03 71.808C144.339 71.9307 144.686 71.992 145.07 71.992C145.427 71.992 145.734 71.952 145.99 71.872C146.251 71.7867 146.475 71.696 146.662 71.6C146.849 71.504 147.003 71.416 147.126 71.336C147.254 71.2507 147.363 71.208 147.454 71.208C147.571 71.208 147.662 71.2533 147.726 71.344L148.126 71.864ZM155.643 66.336C155.6 66.3947 155.558 66.44 155.515 66.472C155.472 66.504 155.414 66.52 155.339 66.52C155.259 66.52 155.171 66.488 155.075 66.424C154.979 66.3547 154.859 66.28 154.715 66.2C154.576 66.12 154.403 66.048 154.195 65.984C153.992 65.9147 153.742 65.88 153.443 65.88C153.043 65.88 152.691 65.952 152.387 66.096C152.083 66.2347 151.827 66.4373 151.619 66.704C151.416 66.9707 151.262 67.2933 151.155 67.672C151.054 68.0507 151.003 68.4747 151.003 68.944C151.003 69.4347 151.059 69.872 151.171 70.256C151.283 70.6347 151.44 70.9547 151.643 71.216C151.851 71.472 152.099 71.6693 152.387 71.808C152.68 71.9413 153.008 72.008 153.371 72.008C153.718 72.008 154.003 71.968 154.227 71.888C154.451 71.8027 154.635 71.7093 154.779 71.608C154.928 71.5067 155.051 71.416 155.147 71.336C155.248 71.2507 155.347 71.208 155.443 71.208C155.56 71.208 155.651 71.2533 155.715 71.344L156.115 71.864C155.939 72.0827 155.739 72.2693 155.515 72.424C155.291 72.5787 155.048 72.7093 154.787 72.816C154.531 72.9173 154.262 72.992 153.979 73.04C153.696 73.088 153.408 73.112 153.115 73.112C152.608 73.112 152.136 73.0187 151.699 72.832C151.267 72.6453 150.891 72.376 150.571 72.024C150.251 71.6667 150 71.2293 149.819 70.712C149.638 70.1947 149.547 69.6053 149.547 68.944C149.547 68.3413 149.63 67.784 149.795 67.272C149.966 66.76 150.211 66.32 150.531 65.952C150.856 65.5787 151.254 65.288 151.723 65.08C152.198 64.872 152.742 64.768 153.355 64.768C153.926 64.768 154.427 64.8613 154.859 65.048C155.296 65.2293 155.683 65.488 156.019 65.824L155.643 66.336ZM160.132 73.128C159.492 73.128 158.998 72.9493 158.652 72.592C158.31 72.2347 158.14 71.72 158.14 71.048V66.088H157.164C157.078 66.088 157.006 66.064 156.948 66.016C156.889 65.9627 156.86 65.8827 156.86 65.776V65.208L158.188 65.04L158.516 62.536C158.532 62.456 158.566 62.392 158.62 62.344C158.678 62.2907 158.753 62.264 158.844 62.264H159.564V65.056H161.908V66.088H159.564V70.952C159.564 71.2933 159.646 71.5467 159.812 71.712C159.977 71.8773 160.19 71.96 160.452 71.96C160.601 71.96 160.729 71.9413 160.836 71.904C160.948 71.8613 161.044 71.816 161.124 71.768C161.204 71.72 161.27 71.6773 161.324 71.64C161.382 71.5973 161.433 71.576 161.476 71.576C161.55 71.576 161.617 71.6213 161.676 71.712L162.092 72.392C161.846 72.6213 161.55 72.8027 161.204 72.936C160.857 73.064 160.5 73.128 160.132 73.128ZM168.755 68.064C168.755 67.7333 168.707 67.432 168.611 67.16C168.52 66.8827 168.384 66.6453 168.203 66.448C168.027 66.2453 167.811 66.0907 167.555 65.984C167.299 65.872 167.008 65.816 166.683 65.816C166 65.816 165.459 66.016 165.059 66.416C164.664 66.8107 164.419 67.36 164.323 68.064H168.755ZM169.907 71.864C169.731 72.0773 169.52 72.264 169.275 72.424C169.03 72.5787 168.766 72.7067 168.483 72.808C168.206 72.9093 167.918 72.984 167.619 73.032C167.32 73.0853 167.024 73.112 166.731 73.112C166.171 73.112 165.654 73.0187 165.179 72.832C164.71 72.64 164.302 72.3627 163.955 72C163.614 71.632 163.347 71.1787 163.155 70.64C162.963 70.1013 162.867 69.4827 162.867 68.784C162.867 68.2187 162.952 67.6907 163.123 67.2C163.299 66.7093 163.55 66.2853 163.875 65.928C164.2 65.5653 164.598 65.2827 165.067 65.08C165.536 64.872 166.064 64.768 166.651 64.768C167.136 64.768 167.584 64.8507 167.995 65.016C168.411 65.176 168.768 65.4107 169.067 65.72C169.371 66.024 169.608 66.4027 169.779 66.856C169.95 67.304 170.035 67.816 170.035 68.392C170.035 68.616 170.011 68.7653 169.963 68.84C169.915 68.9147 169.824 68.952 169.691 68.952H164.275C164.291 69.464 164.36 69.9093 164.483 70.288C164.611 70.6667 164.787 70.984 165.011 71.24C165.235 71.4907 165.502 71.68 165.811 71.808C166.12 71.9307 166.467 71.992 166.851 71.992C167.208 71.992 167.515 71.952 167.771 71.872C168.032 71.7867 168.256 71.696 168.443 71.6C168.63 71.504 168.784 71.416 168.907 71.336C169.035 71.2507 169.144 71.208 169.235 71.208C169.352 71.208 169.443 71.2533 169.507 71.344L169.907 71.864ZM174.21 73.128C173.57 73.128 173.076 72.9493 172.73 72.592C172.388 72.2347 172.218 71.72 172.218 71.048V66.088H171.242C171.156 66.088 171.084 66.064 171.026 66.016C170.967 65.9627 170.938 65.8827 170.938 65.776V65.208L172.266 65.04L172.594 62.536C172.61 62.456 172.644 62.392 172.698 62.344C172.756 62.2907 172.831 62.264 172.922 62.264H173.642V65.056H175.986V66.088H173.642V70.952C173.642 71.2933 173.724 71.5467 173.89 71.712C174.055 71.8773 174.268 71.96 174.53 71.96C174.679 71.96 174.807 71.9413 174.914 71.904C175.026 71.8613 175.122 71.816 175.202 71.768C175.282 71.72 175.348 71.6773 175.402 71.64C175.46 71.5973 175.511 71.576 175.554 71.576C175.628 71.576 175.695 71.6213 175.754 71.712L176.17 72.392C175.924 72.6213 175.628 72.8027 175.282 72.936C174.935 73.064 174.578 73.128 174.21 73.128ZM184.12 64.896V73H183.272C183.069 73 182.941 72.9013 182.888 72.704L182.776 71.832C182.424 72.2213 182.029 72.536 181.592 72.776C181.155 73.0107 180.653 73.128 180.088 73.128C179.645 73.128 179.253 73.056 178.912 72.912C178.576 72.7627 178.293 72.5547 178.064 72.288C177.835 72.0213 177.661 71.6987 177.544 71.32C177.432 70.9413 177.376 70.5227 177.376 70.064V64.896H178.8V70.064C178.8 70.6773 178.939 71.152 179.216 71.488C179.499 71.824 179.928 71.992 180.504 71.992C180.925 71.992 181.317 71.8933 181.68 71.696C182.048 71.4933 182.387 71.216 182.696 70.864V64.896H184.12ZM187.73 66.52C187.986 65.9653 188.301 65.5333 188.674 65.224C189.047 64.9093 189.503 64.752 190.042 64.752C190.213 64.752 190.375 64.7707 190.53 64.808C190.69 64.8453 190.831 64.904 190.954 64.984L190.85 66.048C190.818 66.1813 190.738 66.248 190.61 66.248C190.535 66.248 190.426 66.232 190.282 66.2C190.138 66.168 189.975 66.152 189.794 66.152C189.538 66.152 189.309 66.1893 189.106 66.264C188.909 66.3387 188.73 66.4507 188.57 66.6C188.415 66.744 188.274 66.9253 188.146 67.144C188.023 67.3573 187.911 67.6027 187.81 67.88V73H186.378V64.896H187.194C187.349 64.896 187.455 64.9253 187.514 64.984C187.573 65.0427 187.613 65.144 187.634 65.288L187.73 66.52ZM200.348 69.352C199.692 69.3733 199.132 69.4267 198.668 69.512C198.209 69.592 197.833 69.6987 197.54 69.832C197.252 69.9653 197.041 70.1227 196.908 70.304C196.78 70.4853 196.716 70.688 196.716 70.912C196.716 71.1253 196.751 71.3093 196.82 71.464C196.889 71.6187 196.983 71.7467 197.1 71.848C197.223 71.944 197.364 72.016 197.524 72.064C197.689 72.1067 197.865 72.128 198.052 72.128C198.303 72.128 198.532 72.104 198.74 72.056C198.948 72.0027 199.143 71.928 199.324 71.832C199.511 71.736 199.687 71.6213 199.852 71.488C200.023 71.3547 200.188 71.2027 200.348 71.032V69.352ZM195.748 66.04C196.196 65.608 196.679 65.2853 197.196 65.072C197.713 64.8587 198.287 64.752 198.916 64.752C199.369 64.752 199.772 64.8267 200.124 64.976C200.476 65.1253 200.772 65.3333 201.012 65.6C201.252 65.8667 201.433 66.1893 201.556 66.568C201.679 66.9467 201.74 67.3627 201.74 67.816V73H201.108C200.969 73 200.863 72.9787 200.788 72.936C200.713 72.888 200.655 72.7973 200.612 72.664L200.452 71.896C200.239 72.0933 200.031 72.2693 199.828 72.424C199.625 72.5733 199.412 72.7013 199.188 72.808C198.964 72.9093 198.724 72.9867 198.468 73.04C198.217 73.0987 197.937 73.128 197.628 73.128C197.313 73.128 197.017 73.0853 196.74 73C196.463 72.9093 196.22 72.776 196.012 72.6C195.809 72.424 195.647 72.2027 195.524 71.936C195.407 71.664 195.348 71.344 195.348 70.976C195.348 70.656 195.436 70.3493 195.612 70.056C195.788 69.7573 196.073 69.4933 196.468 69.264C196.863 69.0347 197.377 68.848 198.012 68.704C198.647 68.5547 199.425 68.4693 200.348 68.448V67.816C200.348 67.1867 200.212 66.712 199.94 66.392C199.668 66.0667 199.271 65.904 198.748 65.904C198.396 65.904 198.1 65.9493 197.86 66.04C197.625 66.1253 197.42 66.224 197.244 66.336C197.073 66.4427 196.924 66.5413 196.796 66.632C196.673 66.7173 196.551 66.76 196.428 66.76C196.332 66.76 196.249 66.736 196.18 66.688C196.111 66.6347 196.052 66.5707 196.004 66.496L195.748 66.04ZM209.189 66.824C208.923 66.4667 208.635 66.2187 208.325 66.08C208.016 65.936 207.669 65.864 207.285 65.864C206.533 65.864 205.955 66.1333 205.549 66.672C205.144 67.2107 204.941 67.9787 204.941 68.976C204.941 69.504 204.987 69.9573 205.077 70.336C205.168 70.7093 205.301 71.0187 205.477 71.264C205.653 71.504 205.869 71.68 206.125 71.792C206.381 71.904 206.672 71.96 206.997 71.96C207.467 71.96 207.875 71.8533 208.221 71.64C208.573 71.4267 208.896 71.1253 209.189 70.736V66.824ZM210.613 61.216V73H209.765C209.563 73 209.435 72.9013 209.381 72.704L209.253 71.72C208.907 72.136 208.512 72.472 208.069 72.728C207.627 72.984 207.115 73.112 206.533 73.112C206.069 73.112 205.648 73.024 205.269 72.848C204.891 72.6667 204.568 72.4027 204.301 72.056C204.035 71.7093 203.829 71.2773 203.685 70.76C203.541 70.2427 203.469 69.648 203.469 68.976C203.469 68.3787 203.549 67.824 203.709 67.312C203.869 66.7947 204.099 66.3467 204.397 65.968C204.696 65.5893 205.061 65.2933 205.493 65.08C205.931 64.8613 206.421 64.752 206.965 64.752C207.461 64.752 207.885 64.8373 208.237 65.008C208.595 65.1733 208.912 65.4053 209.189 65.704V61.216H210.613ZM214.366 64.896V73H212.942V64.896H214.366ZM214.67 62.352C214.67 62.4907 214.641 62.6213 214.582 62.744C214.529 62.8613 214.454 62.968 214.358 63.064C214.268 63.1547 214.158 63.2267 214.03 63.28C213.908 63.3333 213.777 63.36 213.638 63.36C213.5 63.36 213.369 63.3333 213.246 63.28C213.129 63.2267 213.025 63.1547 212.934 63.064C212.844 62.968 212.772 62.8613 212.718 62.744C212.665 62.6213 212.638 62.4907 212.638 62.352C212.638 62.2133 212.665 62.0827 212.718 61.96C212.772 61.832 212.844 61.7227 212.934 61.632C213.025 61.536 213.129 61.4613 213.246 61.408C213.369 61.3547 213.5 61.328 213.638 61.328C213.777 61.328 213.908 61.3547 214.03 61.408C214.158 61.4613 214.268 61.536 214.358 61.632C214.454 61.7227 214.529 61.832 214.582 61.96C214.641 62.0827 214.67 62.2133 214.67 62.352ZM218.138 71.048C218.399 71.4 218.685 71.648 218.994 71.792C219.303 71.936 219.65 72.008 220.034 72.008C220.791 72.008 221.373 71.7387 221.778 71.2C222.183 70.6613 222.386 69.8933 222.386 68.896C222.386 68.368 222.338 67.9147 222.242 67.536C222.151 67.1573 222.018 66.848 221.842 66.608C221.666 66.3627 221.45 66.184 221.194 66.072C220.938 65.96 220.647 65.904 220.322 65.904C219.858 65.904 219.45 66.0107 219.098 66.224C218.751 66.4373 218.431 66.7387 218.138 67.128V71.048ZM218.066 66.152C218.407 65.7307 218.802 65.392 219.25 65.136C219.698 64.88 220.21 64.752 220.786 64.752C221.255 64.752 221.679 64.8427 222.058 65.024C222.437 65.2 222.759 65.464 223.026 65.816C223.293 66.1627 223.498 66.5947 223.642 67.112C223.786 67.6293 223.858 68.224 223.858 68.896C223.858 69.4933 223.778 70.0507 223.618 70.568C223.458 71.08 223.226 71.5253 222.922 71.904C222.623 72.2773 222.255 72.5733 221.818 72.792C221.386 73.0053 220.898 73.112 220.354 73.112C219.858 73.112 219.431 73.0293 219.074 72.864C218.722 72.6933 218.41 72.4587 218.138 72.16V75.744H216.706V64.896H217.562C217.765 64.896 217.89 64.9947 217.938 65.192L218.066 66.152ZM227.179 64.896V73H225.755V64.896H227.179ZM227.483 62.352C227.483 62.4907 227.454 62.6213 227.395 62.744C227.342 62.8613 227.267 62.968 227.171 63.064C227.08 63.1547 226.971 63.2267 226.843 63.28C226.72 63.3333 226.59 63.36 226.451 63.36C226.312 63.36 226.182 63.3333 226.059 63.28C225.942 63.2267 225.838 63.1547 225.747 63.064C225.656 62.968 225.584 62.8613 225.531 62.744C225.478 62.6213 225.451 62.4907 225.451 62.352C225.451 62.2133 225.478 62.0827 225.531 61.96C225.584 61.832 225.656 61.7227 225.747 61.632C225.838 61.536 225.942 61.4613 226.059 61.408C226.182 61.3547 226.312 61.328 226.451 61.328C226.59 61.328 226.72 61.3547 226.843 61.408C226.971 61.4613 227.08 61.536 227.171 61.632C227.267 61.7227 227.342 61.832 227.395 61.96C227.454 62.0827 227.483 62.2133 227.483 62.352ZM234.239 66.232C234.175 66.3493 234.076 66.408 233.943 66.408C233.863 66.408 233.772 66.3787 233.671 66.32C233.569 66.2613 233.444 66.1973 233.295 66.128C233.151 66.0533 232.977 65.9867 232.775 65.928C232.572 65.864 232.332 65.832 232.055 65.832C231.815 65.832 231.599 65.864 231.407 65.928C231.215 65.9867 231.049 66.0693 230.911 66.176C230.777 66.2827 230.673 66.408 230.599 66.552C230.529 66.6907 230.495 66.8427 230.495 67.008C230.495 67.216 230.553 67.3893 230.671 67.528C230.793 67.6667 230.953 67.7867 231.151 67.888C231.348 67.9893 231.572 68.08 231.823 68.16C232.073 68.2347 232.329 68.3173 232.591 68.408C232.857 68.4933 233.116 68.5893 233.367 68.696C233.617 68.8027 233.841 68.936 234.039 69.096C234.236 69.256 234.393 69.4533 234.511 69.688C234.633 69.9173 234.695 70.1947 234.695 70.52C234.695 70.8933 234.628 71.24 234.495 71.56C234.361 71.8747 234.164 72.1493 233.903 72.384C233.641 72.6133 233.321 72.7947 232.943 72.928C232.564 73.0613 232.127 73.128 231.631 73.128C231.065 73.128 230.553 73.0373 230.095 72.856C229.636 72.6693 229.247 72.432 228.927 72.144L229.263 71.6C229.305 71.5307 229.356 71.4773 229.415 71.44C229.473 71.4027 229.548 71.384 229.639 71.384C229.735 71.384 229.836 71.4213 229.943 71.496C230.049 71.5707 230.177 71.6533 230.327 71.744C230.481 71.8347 230.668 71.9173 230.887 71.992C231.105 72.0667 231.377 72.104 231.703 72.104C231.98 72.104 232.223 72.0693 232.431 72C232.639 71.9253 232.812 71.8267 232.951 71.704C233.089 71.5813 233.191 71.44 233.255 71.28C233.324 71.12 233.359 70.9493 233.359 70.768C233.359 70.544 233.297 70.36 233.175 70.216C233.057 70.0667 232.9 69.9413 232.703 69.84C232.505 69.7333 232.279 69.6427 232.023 69.568C231.772 69.488 231.513 69.4053 231.247 69.32C230.985 69.2347 230.727 69.1387 230.471 69.032C230.22 68.92 229.996 68.7813 229.799 68.616C229.601 68.4507 229.441 68.248 229.319 68.008C229.201 67.7627 229.143 67.4667 229.143 67.12C229.143 66.8107 229.207 66.5147 229.335 66.232C229.463 65.944 229.649 65.6933 229.895 65.48C230.14 65.2613 230.441 65.088 230.799 64.96C231.156 64.832 231.564 64.768 232.023 64.768C232.556 64.768 233.033 64.8533 233.455 65.024C233.881 65.1893 234.249 65.4187 234.559 65.712L234.239 66.232ZM242.081 66.336C242.038 66.3947 241.995 66.44 241.953 66.472C241.91 66.504 241.851 66.52 241.777 66.52C241.697 66.52 241.609 66.488 241.513 66.424C241.417 66.3547 241.297 66.28 241.153 66.2C241.014 66.12 240.841 66.048 240.633 65.984C240.43 65.9147 240.179 65.88 239.881 65.88C239.481 65.88 239.129 65.952 238.825 66.096C238.521 66.2347 238.265 66.4373 238.057 66.704C237.854 66.9707 237.699 67.2933 237.593 67.672C237.491 68.0507 237.441 68.4747 237.441 68.944C237.441 69.4347 237.497 69.872 237.609 70.256C237.721 70.6347 237.878 70.9547 238.081 71.216C238.289 71.472 238.537 71.6693 238.825 71.808C239.118 71.9413 239.446 72.008 239.809 72.008C240.155 72.008 240.441 71.968 240.665 71.888C240.889 71.8027 241.073 71.7093 241.217 71.608C241.366 71.5067 241.489 71.416 241.585 71.336C241.686 71.2507 241.785 71.208 241.881 71.208C241.998 71.208 242.089 71.2533 242.153 71.344L242.553 71.864C242.377 72.0827 242.177 72.2693 241.953 72.424C241.729 72.5787 241.486 72.7093 241.225 72.816C240.969 72.9173 240.699 72.992 240.417 73.04C240.134 73.088 239.846 73.112 239.553 73.112C239.046 73.112 238.574 73.0187 238.137 72.832C237.705 72.6453 237.329 72.376 237.009 72.024C236.689 71.6667 236.438 71.2293 236.257 70.712C236.075 70.1947 235.985 69.6053 235.985 68.944C235.985 68.3413 236.067 67.784 236.233 67.272C236.403 66.76 236.649 66.32 236.969 65.952C237.294 65.5787 237.691 65.288 238.161 65.08C238.635 64.872 239.179 64.768 239.793 64.768C240.363 64.768 240.865 64.8613 241.297 65.048C241.734 65.2293 242.121 65.488 242.457 65.824L242.081 66.336ZM245.585 64.896V73H244.161V64.896H245.585ZM245.889 62.352C245.889 62.4907 245.86 62.6213 245.801 62.744C245.748 62.8613 245.673 62.968 245.577 63.064C245.486 63.1547 245.377 63.2267 245.249 63.28C245.126 63.3333 244.996 63.36 244.857 63.36C244.718 63.36 244.588 63.3333 244.465 63.28C244.348 63.2267 244.244 63.1547 244.153 63.064C244.062 62.968 243.99 62.8613 243.937 62.744C243.884 62.6213 243.857 62.4907 243.857 62.352C243.857 62.2133 243.884 62.0827 243.937 61.96C243.99 61.832 244.062 61.7227 244.153 61.632C244.244 61.536 244.348 61.4613 244.465 61.408C244.588 61.3547 244.718 61.328 244.857 61.328C244.996 61.328 245.126 61.3547 245.249 61.408C245.377 61.4613 245.486 61.536 245.577 61.632C245.673 61.7227 245.748 61.832 245.801 61.96C245.86 62.0827 245.889 62.2133 245.889 62.352ZM249.269 66.072C249.445 65.8747 249.632 65.696 249.829 65.536C250.026 65.376 250.234 65.24 250.453 65.128C250.677 65.0107 250.912 64.9227 251.157 64.864C251.408 64.8 251.677 64.768 251.965 64.768C252.408 64.768 252.797 64.8427 253.133 64.992C253.474 65.136 253.757 65.344 253.981 65.616C254.21 65.8827 254.384 66.2053 254.501 66.584C254.618 66.9627 254.677 67.3813 254.677 67.84V73H253.245V67.84C253.245 67.2267 253.104 66.752 252.821 66.416C252.544 66.0747 252.12 65.904 251.549 65.904C251.128 65.904 250.733 66.0053 250.365 66.208C250.002 66.4107 249.666 66.6853 249.357 67.032V73H247.925V64.896H248.781C248.984 64.896 249.109 64.9947 249.157 65.192L249.269 66.072ZM259.671 69.04C259.959 69.04 260.212 69 260.431 68.92C260.649 68.84 260.833 68.728 260.983 68.584C261.132 68.44 261.244 68.2693 261.319 68.072C261.393 67.8693 261.431 67.648 261.431 67.408C261.431 66.912 261.279 66.5173 260.975 66.224C260.676 65.9307 260.241 65.784 259.671 65.784C259.095 65.784 258.655 65.9307 258.351 66.224C258.052 66.5173 257.903 66.912 257.903 67.408C257.903 67.648 257.94 67.8693 258.015 68.072C258.095 68.2693 258.209 68.44 258.359 68.584C258.508 68.728 258.692 68.84 258.911 68.92C259.129 69 259.383 69.04 259.671 69.04ZM262.239 73.44C262.239 73.2427 262.183 73.0827 262.071 72.96C261.959 72.8373 261.807 72.7413 261.615 72.672C261.428 72.6027 261.209 72.5547 260.959 72.528C260.708 72.496 260.441 72.472 260.159 72.456C259.881 72.44 259.599 72.424 259.311 72.408C259.023 72.392 258.745 72.3653 258.479 72.328C258.18 72.4667 257.935 72.6427 257.743 72.856C257.556 73.064 257.463 73.3093 257.463 73.592C257.463 73.7733 257.508 73.9413 257.599 74.096C257.695 74.256 257.839 74.392 258.031 74.504C258.223 74.6213 258.463 74.712 258.751 74.776C259.044 74.8453 259.388 74.88 259.783 74.88C260.167 74.88 260.511 74.8453 260.815 74.776C261.119 74.7067 261.375 74.608 261.583 74.48C261.796 74.352 261.959 74.2 262.071 74.024C262.183 73.848 262.239 73.6533 262.239 73.44ZM263.687 65.216V65.744C263.687 65.92 263.575 66.032 263.351 66.08L262.431 66.2C262.612 66.552 262.703 66.9413 262.703 67.368C262.703 67.7627 262.625 68.1227 262.471 68.448C262.321 68.768 262.113 69.0427 261.847 69.272C261.58 69.5013 261.26 69.6773 260.887 69.8C260.513 69.9227 260.108 69.984 259.671 69.984C259.292 69.984 258.935 69.9387 258.599 69.848C258.428 69.9547 258.297 70.0693 258.207 70.192C258.116 70.3093 258.071 70.4293 258.071 70.552C258.071 70.744 258.148 70.8907 258.303 70.992C258.463 71.088 258.671 71.1573 258.927 71.2C259.183 71.2427 259.473 71.2693 259.799 71.28C260.129 71.2907 260.465 71.3093 260.807 71.336C261.153 71.3573 261.489 71.3973 261.815 71.456C262.145 71.5147 262.439 71.6107 262.695 71.744C262.951 71.8773 263.156 72.0613 263.311 72.296C263.471 72.5307 263.551 72.8347 263.551 73.208C263.551 73.5547 263.463 73.8907 263.287 74.216C263.116 74.5413 262.868 74.8293 262.543 75.08C262.217 75.336 261.817 75.5387 261.343 75.688C260.873 75.8427 260.343 75.92 259.751 75.92C259.159 75.92 258.641 75.8613 258.199 75.744C257.756 75.6267 257.388 75.4693 257.095 75.272C256.801 75.0747 256.58 74.8453 256.431 74.584C256.287 74.328 256.215 74.0587 256.215 73.776C256.215 73.376 256.34 73.0373 256.591 72.76C256.841 72.4827 257.185 72.2613 257.623 72.096C257.383 71.9893 257.191 71.848 257.047 71.672C256.908 71.4907 256.839 71.248 256.839 70.944C256.839 70.8267 256.86 70.7067 256.903 70.584C256.945 70.456 257.009 70.3307 257.095 70.208C257.185 70.08 257.295 69.96 257.423 69.848C257.551 69.736 257.7 69.6373 257.871 69.552C257.471 69.328 257.159 69.032 256.935 68.664C256.711 68.2907 256.599 67.8587 256.599 67.368C256.599 66.9733 256.673 66.616 256.823 66.296C256.977 65.9707 257.191 65.696 257.463 65.472C257.735 65.2427 258.057 65.0667 258.431 64.944C258.809 64.8213 259.223 64.76 259.671 64.76C260.023 64.76 260.351 64.8 260.655 64.88C260.959 64.9547 261.236 65.0667 261.487 65.216H263.687ZM274.677 68.064C274.677 67.7333 274.629 67.432 274.533 67.16C274.442 66.8827 274.306 66.6453 274.125 66.448C273.949 66.2453 273.733 66.0907 273.477 65.984C273.221 65.872 272.93 65.816 272.605 65.816C271.922 65.816 271.381 66.016 270.981 66.416C270.586 66.8107 270.341 67.36 270.245 68.064H274.677ZM275.829 71.864C275.653 72.0773 275.442 72.264 275.197 72.424C274.952 72.5787 274.688 72.7067 274.405 72.808C274.128 72.9093 273.84 72.984 273.541 73.032C273.242 73.0853 272.946 73.112 272.653 73.112C272.093 73.112 271.576 73.0187 271.101 72.832C270.632 72.64 270.224 72.3627 269.877 72C269.536 71.632 269.269 71.1787 269.077 70.64C268.885 70.1013 268.789 69.4827 268.789 68.784C268.789 68.2187 268.874 67.6907 269.045 67.2C269.221 66.7093 269.472 66.2853 269.797 65.928C270.122 65.5653 270.52 65.2827 270.989 65.08C271.458 64.872 271.986 64.768 272.573 64.768C273.058 64.768 273.506 64.8507 273.917 65.016C274.333 65.176 274.69 65.4107 274.989 65.72C275.293 66.024 275.53 66.4027 275.701 66.856C275.872 67.304 275.957 67.816 275.957 68.392C275.957 68.616 275.933 68.7653 275.885 68.84C275.837 68.9147 275.746 68.952 275.613 68.952H270.197C270.213 69.464 270.282 69.9093 270.405 70.288C270.533 70.6667 270.709 70.984 270.933 71.24C271.157 71.4907 271.424 71.68 271.733 71.808C272.042 71.9307 272.389 71.992 272.773 71.992C273.13 71.992 273.437 71.952 273.693 71.872C273.954 71.7867 274.178 71.696 274.365 71.6C274.552 71.504 274.706 71.416 274.829 71.336C274.957 71.2507 275.066 71.208 275.157 71.208C275.274 71.208 275.365 71.2533 275.429 71.344L275.829 71.864ZM279.178 61.216V73H277.754V61.216H279.178ZM282.991 64.896V73H281.567V64.896H282.991ZM283.295 62.352C283.295 62.4907 283.266 62.6213 283.207 62.744C283.154 62.8613 283.079 62.968 282.983 63.064C282.893 63.1547 282.783 63.2267 282.655 63.28C282.533 63.3333 282.402 63.36 282.263 63.36C282.125 63.36 281.994 63.3333 281.871 63.28C281.754 63.2267 281.65 63.1547 281.559 63.064C281.469 62.968 281.397 62.8613 281.343 62.744C281.29 62.6213 281.263 62.4907 281.263 62.352C281.263 62.2133 281.29 62.0827 281.343 61.96C281.397 61.832 281.469 61.7227 281.559 61.632C281.65 61.536 281.754 61.4613 281.871 61.408C281.994 61.3547 282.125 61.328 282.263 61.328C282.402 61.328 282.533 61.3547 282.655 61.408C282.783 61.4613 282.893 61.536 282.983 61.632C283.079 61.7227 283.154 61.832 283.207 61.96C283.266 62.0827 283.295 62.2133 283.295 62.352ZM287.819 73.128C287.179 73.128 286.686 72.9493 286.339 72.592C285.998 72.2347 285.827 71.72 285.827 71.048V66.088H284.851C284.766 66.088 284.694 66.064 284.635 66.016C284.576 65.9627 284.547 65.8827 284.547 65.776V65.208L285.875 65.04L286.203 62.536C286.219 62.456 286.254 62.392 286.307 62.344C286.366 62.2907 286.44 62.264 286.531 62.264H287.251V65.056H289.595V66.088H287.251V70.952C287.251 71.2933 287.334 71.5467 287.499 71.712C287.664 71.8773 287.878 71.96 288.139 71.96C288.288 71.96 288.416 71.9413 288.523 71.904C288.635 71.8613 288.731 71.816 288.811 71.768C288.891 71.72 288.958 71.6773 289.011 71.64C289.07 71.5973 289.12 71.576 289.163 71.576C289.238 71.576 289.304 71.6213 289.363 71.712L289.779 72.392C289.534 72.6213 289.238 72.8027 288.891 72.936C288.544 73.064 288.187 73.128 287.819 73.128ZM290.826 72.12C290.826 71.9813 290.85 71.8507 290.898 71.728C290.951 71.6053 291.02 71.4987 291.106 71.408C291.196 71.3173 291.303 71.2453 291.426 71.192C291.548 71.1387 291.679 71.112 291.818 71.112C291.956 71.112 292.087 71.1387 292.21 71.192C292.332 71.2453 292.439 71.3173 292.53 71.408C292.62 71.4987 292.692 71.6053 292.746 71.728C292.799 71.8507 292.826 71.9813 292.826 72.12C292.826 72.264 292.799 72.3973 292.746 72.52C292.692 72.6373 292.62 72.7413 292.53 72.832C292.439 72.9227 292.332 72.992 292.21 73.04C292.087 73.0933 291.956 73.12 291.818 73.12C291.679 73.12 291.548 73.0933 291.426 73.04C291.303 72.992 291.196 72.9227 291.106 72.832C291.02 72.7413 290.951 72.6373 290.898 72.52C290.85 72.3973 290.826 72.264 290.826 72.12Z" fill="#333333"/>
<defs>
<clipPath id="clip0_829_812">
<rect width="32" height="32" fill="white" transform="translate(22 22)"/>
</clipPath>
</defs>
</svg>
